<?xml version="1.0" encoding="utf-8"?>
<!-- Generator: Adobe Illustrator 21.0.0, SVG Export Plug-In . SVG Version: 6.00 Build 0)  -->
<svg version="1.1" id="Layer_1" xmlns="http://www.w3.org/2000/svg" xmlns:xlink="http://www.w3.org/1999/xlink" x="0px" y="0px"
	 viewBox="0 0 166 159.6" style="enable-background:new 0 0 166 159.6;" xml:space="preserve">
<style type="text/css">
	.st0{clip-path:url(#SVGID_2_);}
	.st1{clip-path:url(#SVGID_4_);fill:#FFFFFF;}
	.st2{clip-path:url(#SVGID_6_);}
	.st3{clip-path:url(#SVGID_8_);fill:#FFFFFF;}
	.st4{clip-path:url(#SVGID_10_);}
	.st5{clip-path:url(#SVGID_12_);fill:#FFFFFF;}
</style>
<g>
	<g>
		<defs>
			<path id="SVGID_1_" d="M140.1,155.1H96.5v-40.4H71.5v40.4H27.9V89.9c0-1.7,1.4-3.1,3.1-3.1c1.7,0,3.1,1.4,3.1,3.1v59h31.1v-40.4
				h37.4v40.4h31.1V93c0-1.7,1.4-3.1,3.1-3.1c1.7,0,3.1,1.4,3.1,3.1V155.1z"/>
		</defs>
		<clipPath id="SVGID_2_">
			<use xlink:href="#SVGID_1_"  style="overflow:visible;"/>
		</clipPath>
		<g class="st0">
			<defs>
				<rect id="SVGID_3_" x="-2012.7" y="-5218.1" width="3761.1" height="13516.4"/>
			</defs>
			<clipPath id="SVGID_4_">
				<use xlink:href="#SVGID_3_"  style="overflow:visible;"/>
			</clipPath>
			<rect x="13.2" y="72.1" class="st1" width="141.5" height="97.8"/>
		</g>
	</g>
	<g>
		<defs>
			<path id="SVGID_5_" d="M155.6,89.9c-0.8,0-1.6-0.3-2.2-0.9L84,22.7L14.5,89c-1.2,1.2-3.2,1.1-4.4-0.1c-1.2-1.2-1.1-3.2,0.1-4.4
				L84,14.1l73.8,70.4c0.9,0.9,1.2,2.2,0.7,3.4C158.1,89.1,156.9,89.9,155.6,89.9z"/>
		</defs>
		<clipPath id="SVGID_6_">
			<use xlink:href="#SVGID_5_"  style="overflow:visible;"/>
		</clipPath>
		<g class="st2">
			<defs>
				<rect id="SVGID_7_" x="-2012.7" y="-5218.1" width="3761.1" height="13516.4"/>
			</defs>
			<clipPath id="SVGID_8_">
				<use xlink:href="#SVGID_7_"  style="overflow:visible;"/>
			</clipPath>
			<rect x="-5.5" y="-0.6" class="st3" width="178.9" height="105.2"/>
		</g>
	</g>
	<g>
		<defs>
			<path id="SVGID_9_" d="M130.7,52.6c-1.7,0-3.1-1.4-3.1-3.1V30.8h-18.7c-1.7,0-3.1-1.4-3.1-3.1s1.4-3.1,3.1-3.1h24.9v24.9
				C133.8,51.2,132.4,52.6,130.7,52.6z"/>
		</defs>
		<clipPath id="SVGID_10_">
			<use xlink:href="#SVGID_9_"  style="overflow:visible;"/>
		</clipPath>
		<g class="st4">
			<defs>
				<rect id="SVGID_11_" x="-2012.7" y="-5218.1" width="3761.1" height="13516.4"/>
			</defs>
			<clipPath id="SVGID_12_">
				<use xlink:href="#SVGID_11_"  style="overflow:visible;"/>
			</clipPath>
			<rect x="91.1" y="9.9" class="st5" width="57.4" height="57.4"/>
		</g>
	</g>
</g>
</svg>
