<?xml version="1.0" encoding="utf-8"?>
<!-- Generator: Adobe Illustrator 21.0.0, SVG Export Plug-In . SVG Version: 6.00 Build 0)  -->
<svg version="1.1" id="Layer_1" xmlns="http://www.w3.org/2000/svg" xmlns:xlink="http://www.w3.org/1999/xlink" x="0px" y="0px"
	 viewBox="0 0 166 159.6" style="enable-background:new 0 0 166 159.6;" xml:space="preserve">
<style type="text/css">
	.st0{fill:#FFFFFF;stroke:#FFFFFF;stroke-miterlimit:10;}
</style>
<path class="st0" d="M106.7,110.7L87.9,92l51.4-29.6l18.8,18.7L106.7,110.7z M136.8,122.2L86,151.4V98.5l18.1,18
	c0.5,0.5,1.2,0.7,1.9,0.8c0.1,0,0.1,0.1,0.2,0.1c0.5,0,1-0.1,1.5-0.4l29.1-16.7L136.8,122.2L136.8,122.2z M29.2,100.3L58.3,117
	c0.5,0.3,1,0.4,1.5,0.4c0.1,0,0.1-0.1,0.2-0.1c0.7,0,1.4-0.3,1.9-0.8l18.1-18v52.9l-50.8-29.2V100.3L29.2,100.3z M26.7,62.4L78.1,92
	l-18.8,18.7L27.7,92.5h0L7.9,81.1L26.7,62.4z M59.3,6.7l18.8,18.7L26.7,55L7.9,36.3L59.3,6.7L59.3,6.7z M106.7,6.7l51.4,29.6
	L139.3,55l-3.1-1.8L87.9,25.4L106.7,6.7L106.7,6.7z M133.8,58.7L83,87.9L32.2,58.7l38.1-21.9L83,29.5l45.9,26.4L133.8,58.7z
	 M144,58.7l21.1-21c0.7-0.6,1-1.6,0.9-2.5c-0.1-0.9-0.7-1.7-1.5-2.2L107.7,0.4c-1.2-0.7-2.7-0.5-3.6,0.5L83,21.8L61.9,0.9
	c-1-1-2.4-1.2-3.6-0.5L1.5,33c-0.8,0.5-1.4,1.3-1.5,2.2c-0.1,0.9,0.2,1.8,0.8,2.5l21.1,20.9l-21.1,21c-0.7,0.7-1,1.6-0.8,2.5
	c0.1,0.9,0.7,1.7,1.5,2.2l21.7,12.5V124c0,1.1,0.6,2.1,1.5,2.6l56.8,32.7c0.5,0.3,1,0.4,1.5,0.4c0.5,0,1-0.1,1.5-0.4l56.8-32.7
	c0.9-0.5,1.5-1.5,1.5-2.6V96.8l21.7-12.5c0.8-0.5,1.3-1.3,1.5-2.2c0.1-0.9-0.2-1.8-0.9-2.5L144,58.7z"/>
</svg>
