<?xml version="1.0" encoding="utf-8"?>
<!-- Generator: Adobe Illustrator 21.0.0, SVG Export Plug-In . SVG Version: 6.00 Build 0)  -->
<svg version="1.1" id="Layer_1" xmlns="http://www.w3.org/2000/svg" xmlns:xlink="http://www.w3.org/1999/xlink" x="0px" y="0px"
	 viewBox="0 0 248.9 239.8" style="enable-background:new 0 0 248.9 239.8;" xml:space="preserve">
<style type="text/css">
	.st0{clip-path:url(#SVGID_2_);}
	.st1{clip-path:url(#SVGID_4_);fill:#FFFFFF;}
	.st2{clip-path:url(#SVGID_6_);}
	.st3{clip-path:url(#SVGID_8_);fill:#FFFFFF;}
</style>
<g>
	<defs>
		<path id="SVGID_1_" d="M94,149.9c9.5,0,18,3.8,24.2,9.8c1.5,1.5,2.9,3.2,4.2,4.9c0.6,0.9,1.2,1.8,1.7,2.8c0.6,1.2,1.1,1.9,1.4,2.7
			l1.1,2.5h3.6h38.1c4.9,0,8.7,3.8,8.7,8.5c0,3.5-2.1,6.4-5.1,7.7l-0.4,0.2c-1,0.4-2.1,0.6-3.3,0.6l-57.2,0v8.2h57.2
			c1.7,0,3.2-0.3,4.8-0.8c0.5-0.1,1.1-0.2,1.6-0.5l0.1,0c0.2-0.1,0.3-0.1,0.4-0.2L232,170c0,0,1.4-0.4,3.2-0.2
			c1.8,0.3,3.4,0.7,5,4.3c1.4,3.2,0.1,6.8-3,8.6l-1.9,1.1l-79.9,43.5c-0.1,0.1-0.2,0.1-0.3,0.2c-5.4,3.6-13.8,4.9-20.4,3.2
			l-84.8-28.2c-0.2-0.1-0.3-0.1-0.5-0.1v-52.5L94,149.9z M8.2,140.9h8.2v53.5c0,2.3,1.8,4.1,4.1,4.1c2.3,0,4.1-1.8,4.1-4.1l0-53.5h0
			h16.5v74.1H24.7H8.2V140.9z M4.1,132.7c-2.3,0-4.1,1.8-4.1,4.1v82.4c0,2.3,1.8,4.1,4.1,4.1h20.6h20.6c2.3,0,4.1-1.8,4.1-4.1v-8.1
			l82.9,27.6c0.1,0,0.2,0.1,0.3,0.1c8.8,2.2,19,0.9,26.8-4.2l79.9-43.5c0,0,0,0,0,0l1.9-1.1c0,0,0,0,0,0c6.6-3.8,9.5-11.9,6.5-19
			c-2.5-6-7.5-8.7-11.4-9.3c-3.9-0.6-7.1,0.5-7.1,0.5c-0.1,0-0.3,0.1-0.4,0.2l-43.8,20.4c0.1-0.5,0.2-1.1,0.2-1.6
			c0-9.3-7.7-16.8-16.9-16.8h-36.5c-0.2-0.3-0.3-0.7-0.5-0.9c-0.7-1.2-1.4-2.3-2.1-3.4c-1.5-2.2-3.3-4.3-5.2-6.1
			c-7.7-7.5-18.3-12.1-29.9-12.1l-44.7,0v-4.9c0-2.3-1.8-4.1-4.1-4.1H24.7H4.1z"/>
	</defs>
	<clipPath id="SVGID_2_">
		<use xlink:href="#SVGID_1_"  style="overflow:visible;"/>
	</clipPath>
	<g class="st0">
		<defs>
			<rect id="SVGID_3_" x="-2439" y="-6759.6" width="4563.8" height="16373.9"/>
		</defs>
		<clipPath id="SVGID_4_">
			<use xlink:href="#SVGID_3_"  style="overflow:visible;"/>
		</clipPath>
		<rect x="-17.8" y="114.9" class="st1" width="284.5" height="142.7"/>
	</g>
</g>
<g>
	<defs>
		<path id="SVGID_5_" d="M201.2,82.5L158,107.4V57.6l13.7-7.9v16.9c0,0.5,0.2,1.1,0.6,1.4c0.4,0.4,0.9,0.6,1.4,0.6
			c0.1,0,0.1-0.1,0.2-0.1c0.5,0,1-0.2,1.4-0.6l5.3-6.1l5,0c0.5,0,1.1-0.2,1.4-0.6c0.4-0.4,0.6-0.9,0.6-1.4V40.6l13.7-7.9L201.2,82.5
			L201.2,82.5z M110.8,32.7l43.1,24.9v49.7l-43.1-24.9V32.7z M156,4.4l43.2,24.9l-2,1.2l-11.6,6.7l-43.1-24.9L156,4.4L156,4.4z
			 M175.7,47.4l7.7-4.4v14.9l-3.8,0c-0.6,0-1.2,0.3-1.5,0.7l-2.3,2.7V47.4z M138.2,14.6l43.2,24.9l-7.7,4.4L130.5,19L138.2,14.6z
			 M126.5,21.4l43.2,24.9L156,54.1l-43.1-24.9L126.5,21.4L126.5,21.4z M204.2,27.5L157,0.3c-0.6-0.4-1.4-0.4-2,0l-47.2,27.2
			c-0.6,0.4-1,1-1,1.8v54.4c0,0.7,0.4,1.4,1,1.8l47.2,27.2c0.6,0.4,1.4,0.4,2,0l47.2-27.2c0.6-0.4,1-1,1-1.8V29.2
			C205.2,28.5,204.8,27.8,204.2,27.5L204.2,27.5z"/>
	</defs>
	<clipPath id="SVGID_6_">
		<use xlink:href="#SVGID_5_"  style="overflow:visible;"/>
	</clipPath>
	<g class="st2">
		<defs>
			<rect id="SVGID_7_" x="-2439" y="-6759.6" width="4563.8" height="16373.9"/>
		</defs>
		<clipPath id="SVGID_8_">
			<use xlink:href="#SVGID_7_"  style="overflow:visible;"/>
		</clipPath>
		<rect x="88.9" y="-17.8" class="st3" width="134.1" height="148.5"/>
	</g>
</g>
</svg>
